PathFileType	4	(X/Y/Z)	OpenSim_Sub08_EMGStiffKnee_Magnet.trc
DataRate	CameraRate	NumFrames	NumMarkers	Units	OrigDataRate	OrigDataStartFrame	OrigNumFrames
100	100	23	8	m	100	788	6301
Frame#	Time	torso_imu_offset_imu	pelvis_imu_offset_imu	tibia_r_imu_offset_imu	femur_r_imu_offset_imu	tibia_l_imu_offset_imu	femur_l_imu_offset_imu	toes_r_imu_offset_imu	toes_l_imu_offset_imu
				X1	Y1	Z1	X2	Y2	Z2	X3	Y3	Z3	X4	Y4	Z4	X5	Y5	Z5	X6	Y6	Z6	X7	Y7	Z7	X8		Y8	Z8	

788	7.87000000	-0.94633188	-0.14785018	0.07963239	-0.62947730	0.25359692	-0.68877463	-0.37614810	-0.72608242	-0.18684041	-0.65791866	-0.53971725	-0.15646713	-0.66464434	0.33020715	0.37376791	-0.70046341	0.20366279	0.40178329	-0.72161951	-0.55282878	-0.27003993	-0.72397342	-0.19144077	-0.39275393
789	7.88000000	-0.95332811	-0.14413276	0.08394035	-0.63140539	0.25763185	-0.68414735	-0.39437906	-0.70379652	-0.20776091	-0.66058565	-0.53128301	-0.16321790	-0.66258417	0.33501288	0.38010973	-0.69879280	0.20999001	0.40918559	-0.71172479	-0.54840818	-0.30474322	-0.72871304	-0.18896599	-0.39290805
790	7.89000000	-0.94300983	-0.14548717	0.08547205	-0.63315833	0.26668638	-0.68461746	-0.41542946	-0.69603311	-0.22275869	-0.66895931	-0.52497909	-0.16142967	-0.65732507	0.33628860	0.38191928	-0.69866893	0.21442712	0.42225517	-0.69683420	-0.54354353	-0.33174853	-0.73521142	-0.18518183	-0.39724003
791	7.90000000	-0.95022730	-0.13712528	0.08349060	-0.62734983	0.27416707	-0.68007582	-0.43712924	-0.68240668	-0.23237143	-0.67133998	-0.51490030	-0.16901386	-0.64871758	0.33242114	0.38455151	-0.69469011	0.21813244	0.42031794	-0.68192024	-0.53750202	-0.36577785	-0.73463608	-0.18677275	-0.39481148
792	7.91000000	-0.94496611	-0.13986465	0.08769008	-0.63205313	0.27415407	-0.68080248	-0.45782075	-0.66179967	-0.24358872	-0.68064778	-0.50852631	-0.17116448	-0.64681167	0.33964156	0.39090538	-0.69421010	0.21357703	0.41313671	-0.66144247	-0.53455206	-0.39773679	-0.73575532	-0.17798978	-0.39718262
793	7.92000000	-0.94353650	-0.13970469	0.08550887	-0.63420521	0.27828385	-0.67922277	-0.47092146	-0.64749967	-0.24907089	-0.69076871	-0.49602704	-0.17675272	-0.64292736	0.34616982	0.39500065	-0.68736905	0.21721692	0.42696343	-0.64973072	-0.52615353	-0.41693647	-0.74480831	-0.17847732	-0.39181266
794	7.93000000	-0.94523562	-0.14212547	0.09073505	-0.63353818	0.27814558	-0.66960180	-0.49011518	-0.63296972	-0.26023545	-0.69540796	-0.48782745	-0.18396733	-0.64484902	0.35238397	0.39876496	-0.68353386	0.22497270	0.42797085	-0.63726262	-0.51924799	-0.44817587	-0.74911348	-0.17890759	-0.38566241
795	7.94000000	-0.94305190	-0.14385872	0.09453233	-0.62741149	0.28343470	-0.68320074	-0.50323302	-0.62041300	-0.26069532	-0.70647221	-0.47478126	-0.18570201	-0.63580635	0.35471893	0.39868773	-0.68163122	0.22027445	0.43377098	-0.62756226	-0.50409887	-0.46882645	-0.75550118	-0.18284699	-0.38626148
796	7.95000000	-0.94317047	-0.14120998	0.09483075	-0.62788040	0.29075592	-0.67391362	-0.52030406	-0.60594606	-0.26755425	-0.71285338	-0.45829629	-0.18521993	-0.63426186	0.36138527	0.40572539	-0.68138471	0.22118016	0.44125289	-0.61958565	-0.49055509	-0.49101506	-0.75808674	-0.17620270	-0.38812221
797	7.96000000	-0.94165293	-0.13537509	0.10147147	-0.62522631	0.28661181	-0.68123566	-0.53308452	-0.59299543	-0.26859038	-0.72193729	-0.44425973	-0.19682690	-0.63181039	0.36581623	0.41124305	-0.67716122	0.22798122	0.43254315	-0.61110449	-0.48609955	-0.49875375	-0.76486055	-0.17915087	-0.38290575
798	7.97000000	-0.94558764	-0.14042289	0.10580091	-0.62625124	0.29366064	-0.67576841	-0.54879640	-0.57453543	-0.28054977	-0.73035092	-0.43358358	-0.19226332	-0.62510576	0.37230915	0.40627619	-0.67501449	0.23136862	0.43961575	-0.60403547	-0.47129771	-0.50997864	-0.76650764	-0.18077142	-0.37419474
799	7.98000000	-0.94306944	-0.14622613	0.11092509	-0.63013905	0.29907049	-0.67181951	-0.56594178	-0.56417737	-0.28244323	-0.73775877	-0.41750070	-0.19532874	-0.62112478	0.37694295	0.40877119	-0.67029948	0.22959976	0.43944669	-0.60133151	-0.46119525	-0.52441168	-0.76907478	-0.17577022	-0.37251875
800	7.99000000	-0.94259846	-0.14602287	0.11943360	-0.62620786	0.29434905	-0.67450761	-0.58034478	-0.54692384	-0.28222046	-0.74992553	-0.40690848	-0.19064338	-0.61610418	0.38571946	0.41016419	-0.66654896	0.23444879	0.44368367	-0.58962159	-0.45089257	-0.53480828	-0.77437860	-0.17260742	-0.37268367
801	8	-0.93680207	-0.14825419	0.12123071	-0.63251940	0.29317743	-0.67914345	-0.59233086	-0.53081640	-0.27162604	-0.75246619	-0.38804723	-0.18690596	-0.60602379	0.39259937	0.40669139	-0.67189688	0.23823654	0.43839748	-0.58992331	-0.43757819	-0.54771920	-0.78524861	-0.18171609	-0.36916795
802	8.01000000	-0.94093528	-0.15014823	0.12385128	-0.62751795	0.29672173	-0.68104198	-0.61252658	-0.52035267	-0.26720602	-0.76165068	-0.37887105	-0.18552317	-0.60857439	0.40620531	0.40305569	-0.67516858	0.24072372	0.43503280	-0.57952393	-0.41734238	-0.55765130	-0.78607270	-0.18378070	-0.35625864
803	8.02000000	-0.93642803	-0.15043141	0.12863784	-0.62624176	0.29102261	-0.67857976	-0.61801648	-0.50616138	-0.25215485	-0.77033271	-0.36959257	-0.18487823	-0.59936614	0.41334859	0.41314597	-0.66901938	0.24450312	0.44427252	-0.57439207	-0.40511939	-0.56246466	-0.77918493	-0.19041160	-0.35881074
804	8.03000000	-0.93666058	-0.15451687	0.13472868	-0.63243894	0.29686311	-0.67900803	-0.63846510	-0.50004347	-0.24548414	-0.77850724	-0.34909326	-0.17217142	-0.59478734	0.41253713	0.40597098	-0.67110854	0.23999947	0.44583517	-0.57477953	-0.38588049	-0.57268985	-0.78251936	-0.18940991	-0.35145705
805	8.04000000	-0.93624186	-0.15718101	0.13802500	-0.62990168	0.28826766	-0.67829243	-0.64370705	-0.48710530	-0.23009567	-0.77931023	-0.34164462	-0.17330270	-0.58659439	0.42971011	0.41031888	-0.66938729	0.24303248	0.44850882	-0.57130145	-0.36104128	-0.57027100	-0.78863978	-0.18609016	-0.34485404
806	8.05000000	-0.93167280	-0.16254527	0.15100125	-0.63227127	0.29325427	-0.67931110	-0.66699385	-0.47684696	-0.22248396	-0.79264913	-0.33045604	-0.17041401	-0.58491497	0.42955127	0.41247718	-0.67081116	0.24961750	0.44649789	-0.57235708	-0.33956159	-0.57114050	-0.78614263	-0.19275497	-0.34102769
807	8.06000000	-0.93045450	-0.15663843	0.15020628	-0.63026453	0.29495678	-0.68594888	-0.67056336	-0.46460081	-0.21515362	-0.79876659	-0.31445980	-0.16229732	-0.58251318	0.44332977	0.41568548	-0.66274436	0.25366944	0.42950500	-0.57720376	-0.32301595	-0.57303092	-0.78828259	-0.19238460	-0.34061633
808	8.07000000	-0.93417415	-0.16291869	0.15539517	-0.63486947	0.29484680	-0.68031284	-0.68004941	-0.45624639	-0.20041887	-0.80318094	-0.30371725	-0.16090485	-0.57574571	0.44910975	0.41349981	-0.66732380	0.25592860	0.44024663	-0.57896745	-0.30015711	-0.56661952	-0.78618972	-0.19492665	-0.33381192
809	8.08000000	-0.93189765	-0.15860275	0.16197819	-0.63417794	0.29226624	-0.67694117	-0.69083820	-0.44356743	-0.19913756	-0.80787541	-0.29024624	-0.15856707	-0.57229433	0.45364953	0.41758327	-0.66265959	0.25761997	0.44546541	-0.57358875	-0.28074822	-0.55835247	-0.78794929	-0.19963034	-0.33156694
810	8.09000000	-0.92951099	-0.16335687	0.16793645	-0.63230752	0.28852950	-0.68346116	-0.70154647	-0.43063129	-0.18969625	-0.81201284	-0.28489111	-0.15532153	-0.57168757	0.46060114	0.41445559	-0.66033338	0.25595088	0.44351142	-0.57639485	-0.26875845	-0.55110205	-0.78586814	-0.20595112	-0.32462385
